<svg width="24" height="22" viewBox="0 0 24 22" fill="none" xmlns="http://www.w3.org/2000/svg">
<path d="M12.3088 12.0709C12.1479 10.5397 13.7048 9.40852 15.1113 10.0347L18.276 11.4437C19.6824 12.0699 19.8836 13.9839 18.638 14.8888L15.8355 16.925C14.59 17.8299 12.8318 17.0472 12.6709 15.516L12.3088 12.0709Z" fill="#3CC3BC"/>
<path d="M12.3088 12.0709C12.1479 10.5397 13.7048 9.40852 15.1113 10.0347L18.276 11.4437C19.6824 12.0699 19.8836 13.9839 18.638 14.8888L15.8355 16.925C14.59 17.8299 12.8318 17.0472 12.6709 15.516L12.3088 12.0709Z" fill="black" fill-opacity="0.2"/>
<path d="M8.74292 9.94216C10.1494 9.31595 11.7064 10.4471 11.5454 11.9783L11.1833 15.4234C11.0224 16.9546 9.26429 17.7374 8.01873 16.8324L5.21621 14.7963C3.97065 13.8913 4.17181 11.9773 5.57831 11.3511L8.74292 9.94216Z" fill="#3CC3BC"/>
<path d="M8.74292 9.94216C10.1494 9.31595 11.7064 10.4471 11.5454 11.9783L11.1833 15.4234C11.0224 16.9546 9.26429 17.7374 8.01873 16.8324L5.21621 14.7963C3.97065 13.8913 4.17181 11.9773 5.57831 11.3511L8.74292 9.94216Z" fill="black" fill-opacity="0.2"/>
<path d="M13.7256 9C12.9558 10.3333 11.0312 10.3333 10.2614 9L8.5294 6C7.7596 4.66667 8.72185 3 10.2614 3L13.7256 3C15.2652 3 16.2274 4.66667 15.4576 6L13.7256 9Z" fill="#3CC3BC"/>
<path d="M13.7256 9C12.9558 10.3333 11.0312 10.3333 10.2614 9L8.5294 6C7.7596 4.66667 8.72185 3 10.2614 3L13.7256 3C15.2652 3 16.2274 4.66667 15.4576 6L13.7256 9Z" fill="black" fill-opacity="0.2"/>
</svg>
