<svg width="21" height="21" viewBox="0 0 21 21" fill="none" xmlns="http://www.w3.org/2000/svg">
<path d="M20.1212 9.34189L4.67021 0.464751C4.41643 0.317487 4.11451 0.200601 3.78185 0.120835C3.4492 0.0410681 3.09239 0 2.73202 0C2.37164 0 2.01484 0.0410681 1.68218 0.120835C1.34952 0.200601 1.0476 0.317487 0.79382 0.464751C0.285383 0.75913 0 1.15735 0 1.57243C0 1.98751 0.285383 2.38573 0.79382 2.68011L14.3066 10.536L0.79382 18.3133C0.285383 18.6077 0 19.0059 0 19.421C0 19.8361 0.285383 20.2343 0.79382 20.5286C1.04664 20.6771 1.34814 20.7952 1.68084 20.8761C2.01355 20.957 2.37084 20.9991 2.73202 21C3.09319 20.9991 3.45048 20.957 3.78319 20.8761C4.11589 20.7952 4.41739 20.6771 4.67021 20.5286L20.1212 11.6515C20.3983 11.5044 20.6194 11.3258 20.7707 11.1271C20.9219 10.9283 21 10.7137 21 10.4967C21 10.2797 20.9219 10.0651 20.7707 9.86633C20.6194 9.66758 20.3983 9.48902 20.1212 9.34189V9.34189Z" fill="white"/>
</svg>
