<svg id="eERFW7e2KYG1" xmlns="http://www.w3.org/2000/svg" xmlns:xlink="http://www.w3.org/1999/xlink" viewBox="0 0 300 300" shape-rendering="geometricPrecision" text-rendering="geometricPrecision"><g transform="translate(0-2)"><line x1="-72.411444" y1="0" x2="72.411444" y2="0" transform="matrix(1 0 0 3 147.411444 101.498638)" fill="none" stroke="#3cc3bc" stroke-width="3"/><line x1="0" y1="-46.662125" x2="0" y2="73.337875" transform="matrix(3 0 0 1 150 148.160763)" fill="none" stroke="#3cc3bc" stroke-width="3"/></g><line x1="53.644414" y1="-37.806539" x2="-53.644414" y2="37.80654" transform="translate(96.355586 45.980926)" fill="none" stroke="#3cc3bc" stroke-width="3"/><line x1="-0.340599" y1="-65.735695" x2="0.3406" y2="65.735695" transform="translate(42.370572 149.523161)" fill="none" stroke="#3cc3bc" stroke-width="3"/><line x1="0" y1="65.735695" x2="0" y2="-65.735696" transform="translate(257.288699 149.523162)" fill="none" stroke="#3cc3bc" stroke-width="3"/><line x1="47.854224" y1="37.80654" x2="-47.854223" y2="-37.806539" transform="matrix(1.120995 0 0 0.999997 203.644353 45.981211)" fill="none" stroke="#3cc3bc" stroke-width="3"/><line x1="-53.644418" y1="-30.313351" x2="53.644418" y2="30.313351" transform="translate(96.35559 245.572208)" fill="none" stroke="#3cc3bc" stroke-width="3"/><line x1="53.64435" y1="-30.313351" x2="-53.64435" y2="30.313351" transform="translate(203.64435 245.572208)" fill="none" stroke="#3cc3bc" stroke-width="3"/><line x1="-15" y1="0" x2="15" y2="0" transform="translate(468.46049 194.822888)" fill="none" stroke="#3f5787" stroke-width="3"/></svg>
